<?xml version="1.0" encoding="utf-8"?>
<!-- Generated by Mocodo 4.1.0 -->
<svg width="593" height="548" viewBox="0 0 593 548" xmlns="http://www.w3.org/2000/svg">
<rect x="0" y="0" width="593" height="548" fill="#f7f7f7" stroke="none" stroke-width="0"/>

<!-- Association SELECTIONNE -->
<g>
	<line x1="414" y1="68" x2="539" y2="68" stroke="#7fbc41" stroke-width="2"/>
	<line x1="539" y1="194" x2="539" y2="68" stroke="#7fbc41" stroke-width="2"/>
	<g>
		<path d="M568 43 a14 14 90 0 1 14 14 V68 h-86 V57 a14 14 90 0 1 14 -14" fill="#b8e186" stroke="#b8e186" stroke-width="0"/>
		<path d="M582 68 v11 a14 14 90 0 1 -14 14 H510 a14 14 90 0 1 -14 -14 V68 H86" fill="#e6f5d0" stroke="#e6f5d0" stroke-width="0"/>
		<rect x="496" y="43" width="86" height="50" fill="none" rx="14" stroke="#7fbc41" stroke-width="2"/>
		<line x1="496" y1="68" x2="582" y2="68" stroke="#7fbc41" stroke-width="1"/>
		<text x="504" y="60.75" fill="#000000" font-family="Verdana" font-size="12">Selectionne</text>
	</g>
	<text x="469" y="85" fill="#c51b7d" font-family="Verdana" font-size="12">0,1</text>
	<text x="544" y="144" fill="#c51b7d" font-family="Verdana" font-size="12">0,N</text>
</g>

<!-- Association POSSEDE -->
<g>
	<line x1="197" y1="320" x2="197" y2="194" stroke="#7fbc41" stroke-width="2"/>
	<line x1="71" y1="194" x2="197" y2="194" stroke="#7fbc41" stroke-width="2"/>
	<g>
		<path d="M215 169 a14 14 90 0 1 14 14 V194 h-64 V183 a14 14 90 0 1 14 -14" fill="#b8e186" stroke="#b8e186" stroke-width="0"/>
		<path d="M229 194 v11 a14 14 90 0 1 -14 14 H179 a14 14 90 0 1 -14 -14 V194 H64" fill="#e6f5d0" stroke="#e6f5d0" stroke-width="0"/>
		<rect x="165" y="169" width="64" height="50" fill="none" rx="14" stroke="#7fbc41" stroke-width="2"/>
		<line x1="165" y1="194" x2="229" y2="194" stroke="#7fbc41" stroke-width="1"/>
		<text x="172" y="186.75" fill="#000000" font-family="Verdana" font-size="12">Possède</text>
	</g>
	<text x="202" y="253" fill="#c51b7d" font-family="Verdana" font-size="12">1,1</text>
	<text x="138" y="211" fill="#c51b7d" font-family="Verdana" font-size="12">1,N</text>
</g>

<!-- Association APPARTIENT -->
<g>
	<line x1="539" y1="194" x2="414" y2="194" stroke="#7fbc41" stroke-width="2"/>
	<line x1="307" y1="194" x2="414" y2="194" stroke="#7fbc41" stroke-width="2"/>
	<g>
		<path d="M439 169 a14 14 90 0 1 14 14 V194 h-78 V183 a14 14 90 0 1 14 -14" fill="#b8e186" stroke="#b8e186" stroke-width="0"/>
		<path d="M453 194 v11 a14 14 90 0 1 -14 14 H389 a14 14 90 0 1 -14 -14 V194 H78" fill="#e6f5d0" stroke="#e6f5d0" stroke-width="0"/>
		<rect x="375" y="169" width="78" height="50" fill="none" rx="14" stroke="#7fbc41" stroke-width="2"/>
		<line x1="375" y1="194" x2="453" y2="194" stroke="#7fbc41" stroke-width="1"/>
		<text x="382" y="186.75" fill="#000000" font-family="Verdana" font-size="12">Appartient</text>
	</g>
	<text x="467" y="211" fill="#c51b7d" font-family="Verdana" font-size="12">0,N</text>
	<text x="348" y="211" fill="#c51b7d" font-family="Verdana" font-size="12">0,N</text>
</g>

<!-- Association VALIDE -->
<g>
	<line x1="197" y1="320" x2="71" y2="320" stroke="#7fbc41" stroke-width="2"/>
	<line x1="71" y1="194" x2="71" y2="320" stroke="#7fbc41" stroke-width="2"/>
	<g>
		<path d="M83 295 a14 14 90 0 1 14 14 V320 h-52 V309 a14 14 90 0 1 14 -14" fill="#b8e186" stroke="#b8e186" stroke-width="0"/>
		<path d="M97 320 v11 a14 14 90 0 1 -14 14 H59 a14 14 90 0 1 -14 -14 V320 H52" fill="#e6f5d0" stroke="#e6f5d0" stroke-width="0"/>
		<rect x="45" y="295" width="52" height="50" fill="none" rx="14" stroke="#7fbc41" stroke-width="2"/>
		<line x1="45" y1="320" x2="97" y2="320" stroke="#7fbc41" stroke-width="1"/>
		<text x="52" y="312.75" fill="#000000" font-family="Verdana" font-size="12">Valide</text>
	</g>
	<text x="121" y="337" fill="#c51b7d" font-family="Verdana" font-size="12">1,1</text>
	<text x="76" y="253" fill="#c51b7d" font-family="Verdana" font-size="12">0,1</text>
</g>

<!-- Association DEFINIT -->
<g>
	<line x1="414" y1="320" x2="307" y2="320" stroke="#7fbc41" stroke-width="2"/>
	<line x1="197" y1="320" x2="307" y2="320" stroke="#7fbc41" stroke-width="2"/>
	<g>
		<path d="M321 295 a14 14 90 0 1 14 14 V320 h-56 V309 a14 14 90 0 1 14 -14" fill="#b8e186" stroke="#b8e186" stroke-width="0"/>
		<path d="M335 320 v11 a14 14 90 0 1 -14 14 H293 a14 14 90 0 1 -14 -14 V320 H56" fill="#e6f5d0" stroke="#e6f5d0" stroke-width="0"/>
		<rect x="279" y="295" width="56" height="50" fill="none" rx="14" stroke="#7fbc41" stroke-width="2"/>
		<line x1="279" y1="320" x2="335" y2="320" stroke="#7fbc41" stroke-width="1"/>
		<text x="287" y="312.75" fill="#000000" font-family="Verdana" font-size="12">Définit</text>
	</g>
	<text x="341" y="337" fill="#c51b7d" font-family="Verdana" font-size="12">1,N</text>
	<text x="252" y="337" fill="#c51b7d" font-family="Verdana" font-size="12">0,N</text>
</g>

<!-- Association CONTIENT -->
<g>
	<line x1="539" y1="194" x2="539" y2="320" stroke="#7fbc41" stroke-width="2"/>
	<line x1="414" y1="320" x2="539" y2="320" stroke="#7fbc41" stroke-width="2"/>
	<g>
		<path d="M558 295 a14 14 90 0 1 14 14 V320 h-66 V309 a14 14 90 0 1 14 -14" fill="#b8e186" stroke="#b8e186" stroke-width="0"/>
		<path d="M572 320 v11 a14 14 90 0 1 -14 14 H520 a14 14 90 0 1 -14 -14 V320 H66" fill="#e6f5d0" stroke="#e6f5d0" stroke-width="0"/>
		<rect x="506" y="295" width="66" height="50" fill="none" rx="14" stroke="#7fbc41" stroke-width="2"/>
		<line x1="506" y1="320" x2="572" y2="320" stroke="#7fbc41" stroke-width="1"/>
		<text x="513" y="312.75" fill="#000000" font-family="Verdana" font-size="12">Contient</text>
	</g>
	<text x="544" y="253" fill="#c51b7d" font-family="Verdana" font-size="12">0,N</text>
	<text x="465" y="337" fill="#c51b7d" font-family="Verdana" font-size="12">0,N</text>
</g>

<!-- Association NECESSITE -->
<g>
	<line x1="414" y1="320" x2="414" y2="421" stroke="#7fbc41" stroke-width="2"/>
	<line x1="414" y1="505" x2="414" y2="421" stroke="#7fbc41" stroke-width="2"/>
	<g>
		<path d="M436 396 a14 14 90 0 1 14 14 V421 h-72 V410 a14 14 90 0 1 14 -14" fill="#b8e186" stroke="#b8e186" stroke-width="0"/>
		<path d="M450 421 v11 a14 14 90 0 1 -14 14 H392 a14 14 90 0 1 -14 -14 V421 H72" fill="#e6f5d0" stroke="#e6f5d0" stroke-width="0"/>
		<rect x="378" y="396" width="72" height="50" fill="none" rx="14" stroke="#7fbc41" stroke-width="2"/>
		<line x1="378" y1="421" x2="450" y2="421" stroke="#7fbc41" stroke-width="1"/>
		<text x="385" y="413.75" fill="#000000" font-family="Verdana" font-size="12">Nécessite</text>
	</g>
	<text x="419" y="388" fill="#c51b7d" font-family="Verdana" font-size="12">0,N</text>
	<text x="419" y="463" fill="#c51b7d" font-family="Verdana" font-size="12">0,N</text>
</g>

<!-- Entity USERS -->
<g>
	<g>
		<rect x="364" y="9" width="100" height="25" fill="#f1b6da" stroke="none" stroke-width="0" opacity="1"/>
		<rect x="364" y="34" width="100" height="93" fill="#fde0ef" stroke="none" stroke-width="0" opacity="1"/>
		<rect x="364" y="9" width="100" height="118" fill="none" stroke="#de77ae" stroke-width="2" opacity="1"/>
		<line x1="364" y1="34" x2="464" y2="34" stroke="#de77ae" stroke-width="1"/>
	</g>
	<text x="397" y="26.75" fill="#000000" font-family="Verdana" font-size="12">Users</text>
	<text x="369" y="51.8" fill="#000000" font-family="Verdana" font-size="12">CodeUser</text>
	<line x1="369" y1="54" x2="428" y2="54" stroke="#000000" stroke-width="1"/>
	<text x="369" y="68.8" fill="#000000" font-family="Verdana" font-size="12">nom</text>
	<text x="369" y="85.8" fill="#000000" font-family="Verdana" font-size="12">prenom</text>
	<text x="369" y="102.8" fill="#000000" font-family="Verdana" font-size="12">email</text>
	<text x="369" y="119.8" fill="#000000" font-family="Verdana" font-size="12">mot_de_passe</text>
</g>

<!-- Entity OBJECTIF -->
<g>
	<g>
		<rect x="9" y="152" width="124" height="25" fill="#f1b6da" stroke="none" stroke-width="0" opacity="1"/>
		<rect x="9" y="177" width="124" height="59" fill="#fde0ef" stroke="none" stroke-width="0" opacity="1"/>
		<rect x="9" y="152" width="124" height="84" fill="none" stroke="#de77ae" stroke-width="2" opacity="1"/>
		<line x1="9" y1="177" x2="133" y2="177" stroke="#de77ae" stroke-width="1"/>
	</g>
	<text x="47" y="169.75" fill="#000000" font-family="Verdana" font-size="12">Objectif</text>
	<text x="14" y="194.8" fill="#000000" font-family="Verdana" font-size="12">CodeObjectif</text>
	<line x1="14" y1="197" x2="92" y2="197" stroke="#000000" stroke-width="1"/>
	<text x="14" y="211.8" fill="#000000" font-family="Verdana" font-size="12">nombre_repetition</text>
	<text x="14" y="228.8" fill="#000000" font-family="Verdana" font-size="12">temps</text>
</g>

<!-- Entity TYPES -->
<g>
	<g>
		<rect x="271" y="160" width="72" height="25" fill="#f1b6da" stroke="none" stroke-width="0" opacity="1"/>
		<rect x="271" y="185" width="72" height="43" fill="#fde0ef" stroke="none" stroke-width="0" opacity="1"/>
		<rect x="271" y="160" width="72" height="68" fill="none" stroke="#de77ae" stroke-width="2" opacity="1"/>
		<line x1="271" y1="185" x2="343" y2="185" stroke="#de77ae" stroke-width="1"/>
	</g>
	<text x="289" y="177.75" fill="#000000" font-family="Verdana" font-size="12">Types</text>
	<text x="276" y="202.8" fill="#000000" font-family="Verdana" font-size="12">CodeType</text>
	<line x1="276" y1="205" x2="337" y2="205" stroke="#000000" stroke-width="1"/>
	<text x="276" y="219.8" fill="#000000" font-family="Verdana" font-size="12">titre</text>
</g>

<!-- Entity TRAINING -->
<g>
	<g>
		<rect x="494" y="152" width="90" height="25" fill="#f1b6da" stroke="none" stroke-width="0" opacity="1"/>
		<rect x="494" y="177" width="90" height="59" fill="#fde0ef" stroke="none" stroke-width="0" opacity="1"/>
		<rect x="494" y="152" width="90" height="84" fill="none" stroke="#de77ae" stroke-width="2" opacity="1"/>
		<line x1="494" y1="177" x2="584" y2="177" stroke="#de77ae" stroke-width="1"/>
	</g>
	<text x="514" y="169.75" fill="#000000" font-family="Verdana" font-size="12">Training</text>
	<text x="499" y="194.8" fill="#000000" font-family="Verdana" font-size="12">CodeTraining</text>
	<line x1="499" y1="197" x2="579" y2="197" stroke="#000000" stroke-width="1"/>
	<text x="499" y="211.8" fill="#000000" font-family="Verdana" font-size="12">titre</text>
	<text x="499" y="228.8" fill="#000000" font-family="Verdana" font-size="12">description</text>
</g>

<!-- Entity NIVEAU -->
<g>
	<g>
		<rect x="147" y="261" width="100" height="25" fill="#f1b6da" stroke="none" stroke-width="0" opacity="1"/>
		<rect x="147" y="286" width="100" height="93" fill="#fde0ef" stroke="none" stroke-width="0" opacity="1"/>
		<rect x="147" y="261" width="100" height="118" fill="none" stroke="#de77ae" stroke-width="2" opacity="1"/>
		<line x1="147" y1="286" x2="247" y2="286" stroke="#de77ae" stroke-width="1"/>
	</g>
	<text x="176" y="278.75" fill="#000000" font-family="Verdana" font-size="12">Niveau</text>
	<text x="152" y="303.8" fill="#000000" font-family="Verdana" font-size="12">CodeNiveau</text>
	<line x1="152" y1="306" x2="225" y2="306" stroke="#000000" stroke-width="1"/>
	<text x="152" y="320.8" fill="#000000" font-family="Verdana" font-size="12">numéro</text>
	<text x="152" y="337.8" fill="#000000" font-family="Verdana" font-size="12">nombre_series</text>
	<text x="152" y="371.8" fill="#000000" font-family="Verdana" font-size="12">numero_serie</text>
</g>

<!-- Entity EXERCICES -->
<g>
	<g>
		<rect x="368" y="269" width="92" height="25" fill="#f1b6da" stroke="none" stroke-width="0" opacity="1"/>
		<rect x="368" y="294" width="92" height="77" fill="#fde0ef" stroke="none" stroke-width="0" opacity="1"/>
		<rect x="368" y="269" width="92" height="102" fill="none" stroke="#de77ae" stroke-width="2" opacity="1"/>
		<line x1="368" y1="294" x2="460" y2="294" stroke="#de77ae" stroke-width="1"/>
	</g>
	<text x="386" y="286.75" fill="#000000" font-family="Verdana" font-size="12">Exercices</text>
	<text x="373" y="311.8" fill="#000000" font-family="Verdana" font-size="12">CodeExercice</text>
	<line x1="373" y1="314" x2="454" y2="314" stroke="#000000" stroke-width="1"/>
	<text x="373" y="328.8" fill="#000000" font-family="Verdana" font-size="12">titre</text>
	<text x="373" y="345.8" fill="#000000" font-family="Verdana" font-size="12">description</text>
	<text x="373" y="362.8" fill="#000000" font-family="Verdana" font-size="12">illustration</text>
</g>

<!-- Entity MATERIEL -->
<g>
	<g>
		<rect x="369" y="471" width="90" height="25" fill="#f1b6da" stroke="none" stroke-width="0" opacity="1"/>
		<rect x="369" y="496" width="90" height="43" fill="#fde0ef" stroke="none" stroke-width="0" opacity="1"/>
		<rect x="369" y="471" width="90" height="68" fill="none" stroke="#de77ae" stroke-width="2" opacity="1"/>
		<line x1="369" y1="496" x2="459" y2="496" stroke="#de77ae" stroke-width="1"/>
	</g>
	<text x="390" y="488.75" fill="#000000" font-family="Verdana" font-size="12">Matériel</text>
	<text x="374" y="513.8" fill="#000000" font-family="Verdana" font-size="12">CodeMatériel</text>
	<line x1="374" y1="516" x2="453" y2="516" stroke="#000000" stroke-width="1"/>
	<text x="374" y="530.8" fill="#000000" font-family="Verdana" font-size="12">nom</text>
</g>
</svg>